Coordinates
version=1
nRows=21
nColumns=12
inDegrees=yes

Units are S.I. units (second, meters, Newtons, ...)
Angles are in degrees

endheader
time	SC_y	SC_z	SC_x	AC_y	AC_z	AC_x	GH_y	GH_z	GH_yy	EL_x	PS_y
       0.0              -12.29          8.221          46.69          65.97         -16.88         -12.27          163.5          8.975          67.67          49.86          148.6
    0.0351               -12.3           8.22          46.69          65.96         -16.88         -12.26          163.5          8.974          67.63          49.86          148.6
    0.0702              -12.31          8.219          46.69          65.96         -16.87         -12.26          163.5          8.973           67.6          49.87          148.6
    0.1053              -12.31          8.218          46.69          65.96         -16.87         -12.26          163.4          8.972          67.56          49.87          148.6
    0.1404              -12.32          8.216          46.69          65.95         -16.87         -12.26          163.4          8.971          67.51          49.87          148.6
    0.1755              -12.33          8.215          46.68          65.95         -16.86         -12.26          163.4           8.97          67.47          49.88          148.6
    0.2106              -12.33          8.214          46.68          65.94         -16.86         -12.26          163.4          8.969          67.42          49.88          148.6
    0.2457              -12.34          8.213          46.68          65.94         -16.85         -12.25          163.3          8.968          67.37          49.88          148.6
    0.2808              -12.35          8.211          46.68          65.93         -16.85         -12.25          163.3          8.967          67.31          49.89          148.6
    0.3159              -12.36           8.21          46.68          65.93         -16.84         -12.25          163.3          8.966          67.25          49.89          148.6
     0.351              -12.37          8.208          46.67          65.92         -16.84         -12.25          163.2          8.964          67.19          49.89          148.6
    0.3861              -12.38          8.206          46.67          65.92         -16.83         -12.24          163.2          8.963          67.12           49.9          148.6
    0.4212              -12.39          8.204          46.67          65.91         -16.83         -12.24          163.1          8.961          67.05           49.9          148.6
    0.4563              -12.41          8.202          46.67           65.9         -16.82         -12.24          163.1          8.959          66.97          49.91          148.6
    0.4914              -12.42            8.2          46.66          65.89         -16.81         -12.23          163.0          8.957          66.88          49.91          148.6
    0.5265              -12.44          8.197          46.66          65.88          -16.8         -12.23          163.0          8.955          66.79          49.92          148.6
    0.5616              -12.45          8.194          46.65          65.87          -16.8         -12.22          162.9          8.953          66.69          49.93          148.6
    0.5967              -12.47          8.191          46.65          65.86         -16.79         -12.22          162.8           8.95          66.58          49.93          148.6
    0.6318              -12.49          8.188          46.65          65.85         -16.78         -12.21          162.8          8.948          66.46          49.94          148.6
    0.6669              -12.51          8.185          46.64          65.84         -16.77         -12.21          162.7          8.945          66.32          49.95          148.6
     0.702              -12.53          8.181          46.64          65.83         -16.75          -12.2          162.6          8.941          66.18          49.96          148.6
